<svg xmlns="http://www.w3.org/2000/svg" width="20" height="20" fill="none">
  <g fill="#858BB2" clip-path="url(#a)">
    <path d="M13.545 6.455c-.9-.9-2.17-1.481-3.545-1.481a4.934 4.934 0 0 0-3.545 1.481c-.9.9-1.482 2.17-1.482 3.545 0 1.376.582 2.646 1.482 3.545.9.9 2.169 1.482 3.545 1.482a4.934 4.934 0 0 0 3.545-1.482c.899-.9 1.481-2.17 1.481-3.545a4.934 4.934 0 0 0-1.481-3.545ZM10 3.413a.7.7 0 0 0 .688-.688V.688A.7.7 0 0 0 10 0a.7.7 0 0 0-.688.688v2.037a.7.7 0 0 0 .688.688ZM15.635 5.344 17.09 3.89a.67.67 0 0 0 0-.952.67.67 0 0 0-.953 0l-1.455 1.455a.67.67 0 0 0 0 .952c.238.265.662.265.953 0ZM19.312 9.313h-2.037a.7.7 0 0 0-.688.687.7.7 0 0 0 .688.688h2.037A.7.7 0 0 0 20 10a.7.7 0 0 0-.688-.688ZM15.608 14.656a.67.67 0 0 0-.952 0 .67.67 0 0 0 0 .953l1.455 1.455a.67.67 0 0 0 .952 0 .67.67 0 0 0 0-.953l-1.455-1.455ZM10 16.587a.7.7 0 0 0-.688.688v2.037A.7.7 0 0 0 10 20a.7.7 0 0 0 .688-.688v-2.037a.7.7 0 0 0-.688-.688ZM4.365 14.656 2.91 16.111a.67.67 0 0 0 0 .953.67.67 0 0 0 .952 0l1.455-1.455a.67.67 0 0 0 0-.953c-.238-.264-.661-.264-.952 0ZM3.413 10a.7.7 0 0 0-.688-.688H.688A.7.7 0 0 0 0 10a.7.7 0 0 0 .688.688h2.037A.7.7 0 0 0 3.413 10ZM4.365 5.344a.67.67 0 0 0 .952 0 .67.67 0 0 0 0-.952L3.862 2.937a.67.67 0 0 0-.952 0 .67.67 0 0 0 0 .952l1.455 1.455Z"/>
  </g>
  <defs>
    <clipPath id="a">
      <path fill="#fff" d="M0 0h20v20H0z"/>
    </clipPath>
  </defs>
</svg>